<svg id="Layer_3" viewBox="0 0 64 64" xmlns="http://www.w3.org/2000/svg" data-name="Layer 3"><path d="m21 12h3v3h2v-3h1v-2h-1v-5h-2v5h-2v-5h-2v6a1 1 0 0 0 1 1z"/><path d="m38 12h3v3h2v-3h1v-2h-1v-5h-2v5h-2v-5h-2v6a1 1 0 0 0 1 1z"/><path d="m30 15h4a1 1 0 0 0 1-1v-8a1 1 0 0 0 -1-1h-4a1 1 0 0 0 -1 1v8a1 1 0 0 0 1 1zm1-8h2v6h-2z"/><path d="m29 43h6v2h-6z"/><path d="m58 7h-5v-3a3 3 0 0 0 -3-3h-36a3 3 0 0 0 -3 3v3h-5a5.006 5.006 0 0 0 -5 5v32a5.006 5.006 0 0 0 5 5h19.6a22.294 22.294 0 0 1 -7.953 11.145 1.583 1.583 0 0 0 .946 2.855h26.814a1.583 1.583 0 0 0 .95-2.856 22.287 22.287 0 0 1 -7.957-11.144h19.6a5.006 5.006 0 0 0 5-5v-32a5.006 5.006 0 0 0 -5-5zm-45-3a1 1 0 0 1 1-1h36a1 1 0 0 1 1 1v12a1 1 0 0 1 -1 1h-36a1 1 0 0 1 -1-1zm-7 5h5v7a3 3 0 0 0 3 3h16.217l-10.071 16.479a1 1 0 0 0 .854 1.521h22a1 1 0 0 0 .854-1.521l-10.071-16.479h16.217a3 3 0 0 0 3-3v-7h5a3 3 0 0 1 3 3v27h-58v-27a3 3 0 0 1 3-3zm26 10.918 9.217 15.082h-18.434zm12.205 41.082h-24.405a24.269 24.269 0 0 0 7.89-12h8.63a24.276 24.276 0 0 0 7.885 12zm13.795-14h-52a3 3 0 0 1 -3-3v-3h58v3a3 3 0 0 1 -3 3z"/><path d="m31 24h2v6h-2z"/><path d="m31 31h2v2h-2z"/></svg>